<svg width="167" height="165" viewBox="0 0 167 165" fill="none" xmlns="http://www.w3.org/2000/svg">
<rect x="0.397827" y="-0.0055542" width="4.48634" height="4.48634" rx="2.12487" fill="white"/>
<rect x="18.3434" y="-0.0055542" width="4.48634" height="4.48634" rx="2.12487" fill="white"/>
<rect x="36.2886" y="-0.0055542" width="4.48634" height="4.48634" rx="2.12487" fill="white"/>
<rect x="54.2339" y="-0.0055542" width="4.48634" height="4.48634" rx="2.12487" fill="white"/>
<rect x="72.1792" y="-0.0055542" width="4.48634" height="4.48634" rx="2.12487" fill="white"/>
<rect x="90.1247" y="-0.0055542" width="4.48634" height="4.48634" rx="2.12487" fill="white"/>
<rect x="108.07" y="-0.0055542" width="4.48634" height="4.48634" rx="2.12487" fill="white"/>
<rect x="126.016" y="-0.0055542" width="4.48634" height="4.48634" rx="2.12487" fill="white"/>
<rect x="143.961" y="-0.0055542" width="4.48634" height="4.48634" rx="2.12487" fill="white"/>
<rect x="161.906" y="-0.0055542" width="4.48634" height="4.48634" rx="2.12487" fill="white"/>
<rect x="0.397827" y="17.9398" width="4.48634" height="4.48634" rx="2.12487" fill="white"/>
<rect x="18.3434" y="17.9398" width="4.48634" height="4.48634" rx="2.12487" fill="white"/>
<rect x="36.2886" y="17.9398" width="4.48634" height="4.48634" rx="2.12487" fill="white"/>
<rect x="54.2339" y="17.9398" width="4.48634" height="4.48634" rx="2.12487" fill="white"/>
<rect x="72.1792" y="17.9398" width="4.48634" height="4.48634" rx="2.12487" fill="white"/>
<rect x="90.1247" y="17.9398" width="4.48634" height="4.48634" rx="2.12487" fill="white"/>
<rect x="108.07" y="17.9398" width="4.48634" height="4.48634" rx="2.12487" fill="white"/>
<rect x="126.016" y="17.9398" width="4.48634" height="4.48634" rx="2.12487" fill="white"/>
<rect x="143.961" y="17.9398" width="4.48634" height="4.48634" rx="2.12487" fill="white"/>
<rect x="161.906" y="17.9398" width="4.48634" height="4.48634" rx="2.12487" fill="white"/>
<rect x="0.397827" y="35.8852" width="4.48634" height="4.48634" rx="2.12487" fill="white"/>
<rect x="18.3434" y="35.8852" width="4.48634" height="4.48634" rx="2.12487" fill="white"/>
<rect x="36.2886" y="35.8852" width="4.48634" height="4.48634" rx="2.12487" fill="white"/>
<rect x="54.2339" y="35.8852" width="4.48634" height="4.48634" rx="2.12487" fill="white"/>
<rect x="72.1792" y="35.8852" width="4.48634" height="4.48634" rx="2.12487" fill="white"/>
<rect x="90.1247" y="35.8852" width="4.48634" height="4.48634" rx="2.12487" fill="white"/>
<rect x="108.07" y="35.8852" width="4.48634" height="4.48634" rx="2.12487" fill="white"/>
<rect x="126.016" y="35.8852" width="4.48634" height="4.48634" rx="2.12487" fill="white"/>
<rect x="143.961" y="35.8852" width="4.48634" height="4.48634" rx="2.12487" fill="white"/>
<rect x="161.906" y="35.8852" width="4.48634" height="4.48634" rx="2.12487" fill="white"/>
<rect x="0.397827" y="53.8305" width="4.48634" height="4.48634" rx="2.12487" fill="white"/>
<rect x="18.3434" y="53.8305" width="4.48634" height="4.48634" rx="2.12487" fill="white"/>
<rect x="36.2886" y="53.8305" width="4.48634" height="4.48634" rx="2.12487" fill="white"/>
<rect x="54.2339" y="53.8305" width="4.48634" height="4.48634" rx="2.12487" fill="white"/>
<rect x="72.1792" y="53.8305" width="4.48634" height="4.48634" rx="2.12487" fill="white"/>
<rect x="90.1247" y="53.8305" width="4.48634" height="4.48634" rx="2.12487" fill="white"/>
<rect x="108.07" y="53.8305" width="4.48634" height="4.48634" rx="2.12487" fill="white"/>
<rect x="126.016" y="53.8305" width="4.48634" height="4.48634" rx="2.12487" fill="white"/>
<rect x="143.961" y="53.8305" width="4.48634" height="4.48634" rx="2.12487" fill="white"/>
<rect x="161.906" y="53.8305" width="4.48634" height="4.48634" rx="2.12487" fill="white"/>
<rect x="0.397827" y="71.7758" width="4.48634" height="4.48634" rx="2.12487" fill="white"/>
<rect x="18.3434" y="71.7758" width="4.48634" height="4.48634" rx="2.12487" fill="white"/>
<rect x="36.2886" y="71.7758" width="4.48634" height="4.48634" rx="2.12487" fill="white"/>
<rect x="54.2339" y="71.7758" width="4.48634" height="4.48634" rx="2.12487" fill="white"/>
<rect x="72.1792" y="71.7758" width="4.48634" height="4.48634" rx="2.12487" fill="white"/>
<rect x="90.1247" y="71.7758" width="4.48634" height="4.48634" rx="2.12487" fill="white"/>
<rect x="108.07" y="71.7758" width="4.48634" height="4.48634" rx="2.12487" fill="white"/>
<rect x="126.016" y="71.7758" width="4.48634" height="4.48634" rx="2.12487" fill="white"/>
<rect x="143.961" y="71.7758" width="4.48634" height="4.48634" rx="2.12487" fill="white"/>
<rect x="161.906" y="71.7758" width="4.48634" height="4.48634" rx="2.12487" fill="white"/>
<rect x="0.397827" y="89.7212" width="4.48634" height="4.48634" rx="2.12487" fill="white"/>
<rect x="18.3434" y="89.7212" width="4.48634" height="4.48634" rx="2.12487" fill="white"/>
<rect x="36.2886" y="89.7212" width="4.48634" height="4.48634" rx="2.12487" fill="white"/>
<rect x="54.2339" y="89.7212" width="4.48634" height="4.48634" rx="2.12487" fill="white"/>
<rect x="72.1792" y="89.7212" width="4.48634" height="4.48634" rx="2.12487" fill="white"/>
<rect x="90.1247" y="89.7212" width="4.48634" height="4.48634" rx="2.12487" fill="white"/>
<rect x="108.07" y="89.7212" width="4.48634" height="4.48634" rx="2.12487" fill="white"/>
<rect x="126.016" y="89.7212" width="4.48634" height="4.48634" rx="2.12487" fill="white"/>
<rect x="143.961" y="89.7212" width="4.48634" height="4.48634" rx="2.12487" fill="white"/>
<rect x="161.906" y="89.7212" width="4.48634" height="4.48634" rx="2.12487" fill="white"/>
<rect x="0.397827" y="107.667" width="4.48634" height="4.48634" rx="2.12487" fill="white"/>
<rect x="0.397827" y="124.974" width="4.48634" height="4.48634" rx="2.12487" fill="white"/>
<rect x="0.397827" y="142.282" width="4.48634" height="4.48634" rx="2.12487" fill="white"/>
<rect x="0.397827" y="159.589" width="4.48634" height="4.48634" rx="2.12487" fill="white"/>
<rect x="18.3434" y="107.667" width="4.48634" height="4.48634" rx="2.12487" fill="white"/>
<rect x="18.3434" y="124.974" width="4.48634" height="4.48634" rx="2.12487" fill="white"/>
<rect x="18.3434" y="142.282" width="4.48634" height="4.48634" rx="2.12487" fill="white"/>
<rect x="18.3434" y="159.589" width="4.48634" height="4.48634" rx="2.12487" fill="white"/>
<rect x="36.2886" y="107.667" width="4.48634" height="4.48634" rx="2.12487" fill="white"/>
<rect x="36.2886" y="124.974" width="4.48634" height="4.48634" rx="2.12487" fill="white"/>
<rect x="36.2886" y="142.282" width="4.48634" height="4.48634" rx="2.12487" fill="white"/>
<rect x="36.2886" y="159.589" width="4.48634" height="4.48634" rx="2.12487" fill="white"/>
<rect x="54.2339" y="107.667" width="4.48634" height="4.48634" rx="2.12487" fill="white"/>
<rect x="54.2339" y="124.974" width="4.48634" height="4.48634" rx="2.12487" fill="white"/>
<rect x="54.2339" y="142.282" width="4.48634" height="4.48634" rx="2.12487" fill="white"/>
<rect x="54.2339" y="159.589" width="4.48634" height="4.48634" rx="2.12487" fill="white"/>
<rect x="72.1792" y="107.667" width="4.48634" height="4.48634" rx="2.12487" fill="white"/>
<rect x="72.1792" y="124.974" width="4.48634" height="4.48634" rx="2.12487" fill="white"/>
<rect x="72.1792" y="142.282" width="4.48634" height="4.48634" rx="2.12487" fill="white"/>
<rect x="72.1792" y="159.589" width="4.48634" height="4.48634" rx="2.12487" fill="white"/>
<rect x="90.1247" y="107.667" width="4.48634" height="4.48634" rx="2.12487" fill="white"/>
<rect x="90.1247" y="124.974" width="4.48634" height="4.48634" rx="2.12487" fill="white"/>
<rect x="90.1247" y="142.282" width="4.48634" height="4.48634" rx="2.12487" fill="white"/>
<rect x="90.1247" y="159.589" width="4.48634" height="4.48634" rx="2.12487" fill="white"/>
<rect x="108.07" y="107.667" width="4.48634" height="4.48634" rx="2.12487" fill="white"/>
<rect x="108.07" y="124.974" width="4.48634" height="4.48634" rx="2.12487" fill="white"/>
<rect x="108.07" y="142.282" width="4.48634" height="4.48634" rx="2.12487" fill="white"/>
<rect x="108.07" y="159.589" width="4.48634" height="4.48634" rx="2.12487" fill="white"/>
<rect x="126.016" y="107.667" width="4.48634" height="4.48634" rx="2.12487" fill="white"/>
<rect x="126.016" y="124.974" width="4.48634" height="4.48634" rx="2.12487" fill="white"/>
<rect x="126.016" y="142.282" width="4.48634" height="4.48634" rx="2.12487" fill="white"/>
<rect x="126.016" y="159.589" width="4.48634" height="4.48634" rx="2.12487" fill="white"/>
<rect x="143.961" y="107.667" width="4.48634" height="4.48634" rx="2.12487" fill="white"/>
<rect x="143.961" y="124.974" width="4.48634" height="4.48634" rx="2.12487" fill="white"/>
<rect x="143.961" y="142.282" width="4.48634" height="4.48634" rx="2.12487" fill="white"/>
<rect x="143.961" y="159.589" width="4.48634" height="4.48634" rx="2.12487" fill="white"/>
<rect x="161.906" y="107.667" width="4.48634" height="4.48634" rx="2.12487" fill="white"/>
<rect x="161.906" y="124.974" width="4.48634" height="4.48634" rx="2.12487" fill="white"/>
<rect x="161.906" y="142.282" width="4.48634" height="4.48634" rx="2.12487" fill="white"/>
<rect x="161.906" y="159.589" width="4.48634" height="4.48634" rx="2.12487" fill="white"/>
</svg>
